<svg viewBox="0 0 200 200" xmlns="http://www.w3.org/2000/svg" role="img" aria-label="Không tìm thấy cặp ghép — minh họa kính lúp soi tuyến đường không khớp">
  <defs>
    <style>
      .stroke-primary { stroke: #16a34a; }
      .stroke-muted   { stroke: #94a3b8; }
      .fill-primary   { fill: #16a34a; }
      .fill-muted     { fill: #94a3b8; }
      .fill-bg        { fill: #f0fdf4; }
      .fill-white     { fill: #ffffff; }
    </style>
  </defs>

  <!-- Soft background disc behind the scene -->
  <circle cx="100" cy="100" r="92" class="fill-bg" />

  <!-- Stylized map "paper" tilted slightly behind the lens -->
  <g transform="translate(38 58) rotate(-6 60 45)">
    <rect x="0" y="0" width="120" height="90" rx="6"
          class="fill-white stroke-muted" stroke-width="1.5"/>
    <line x1="0"  y1="30" x2="120" y2="30" class="stroke-muted" stroke-width="0.75" stroke-dasharray="2 3"/>
    <line x1="0"  y1="60" x2="120" y2="60" class="stroke-muted" stroke-width="0.75" stroke-dasharray="2 3"/>
    <line x1="40" y1="0"  x2="40"  y2="90" class="stroke-muted" stroke-width="0.75" stroke-dasharray="2 3"/>
    <line x1="80" y1="0"  x2="80"  y2="90" class="stroke-muted" stroke-width="0.75" stroke-dasharray="2 3"/>
  </g>

  <!-- Two unconnected route segments (the "no match" metaphor) -->
  <path d="M 48 92 Q 64 78 78 84"
        class="stroke-primary" stroke-width="2.25" fill="none"
        stroke-linecap="round" stroke-dasharray="4 4"/>
  <path d="M 108 110 Q 124 100 142 106"
        class="stroke-primary" stroke-width="2.25" fill="none"
        stroke-linecap="round" stroke-dasharray="4 4"/>

  <!-- Pickup pin (left, primary green) -->
  <g transform="translate(44 80)">
    <path d="M 4 0 C 7.3 0 10 2.7 10 6 C 10 10.5 4 16 4 16 C 4 16 -2 10.5 -2 6 C -2 2.7 0.7 0 4 0 Z"
          class="fill-primary"/>
    <circle cx="4" cy="6" r="2" class="fill-white"/>
  </g>

  <!-- Dropoff pin (right, muted — route is broken) -->
  <g transform="translate(138 96)">
    <path d="M 4 0 C 7.3 0 10 2.7 10 6 C 10 10.5 4 16 4 16 C 4 16 -2 10.5 -2 6 C -2 2.7 0.7 0 4 0 Z"
          class="fill-muted"/>
    <circle cx="4" cy="6" r="2" class="fill-white"/>
  </g>

  <!-- Gap indicator: tiny X between the two route ends -->
  <g transform="translate(91 96)" class="stroke-muted" stroke-width="1.75" stroke-linecap="round">
    <line x1="-4" y1="-4" x2="4" y2="4"/>
    <line x1="-4" y1="4"  x2="4" y2="-4"/>
  </g>

  <!-- Magnifying glass lens — sits over the gap -->
  <circle cx="92" cy="96" r="34"
          stroke="#16a34a" fill="#ffffff"
          stroke-width="4" fill-opacity="0.55"/>
  <path d="M 72 82 Q 78 76 86 76"
        stroke="#ffffff" stroke-width="2.5"
        fill="none" stroke-linecap="round" opacity="0.85"/>

  <!-- Magnifying glass handle -->
  <line x1="117" y1="121" x2="148" y2="152"
        stroke="#16a34a" stroke-width="7" stroke-linecap="round"/>
  <line x1="117" y1="121" x2="148" y2="152"
        stroke="#15803d" stroke-width="2.5" stroke-linecap="round" opacity="0.4"/>
</svg>
