<svg xmlns="http://www.w3.org/2000/svg" viewBox="0 0 900 180" fill="none">
  <defs>
    <!-- Sky gradient -->
    <linearGradient id="tw-sky" x1="0" y1="0" x2="0" y2="1">
      <stop offset="0%" stop-color="#ECFDF5"/>
      <stop offset="100%" stop-color="#F0FDF4"/>
    </linearGradient>
    <!-- Ground gradient -->
    <linearGradient id="tw-ground" x1="0" y1="0" x2="0" y2="1">
      <stop offset="0%" stop-color="#D1FAE5"/>
      <stop offset="100%" stop-color="#A7F3D0"/>
    </linearGradient>
    <!-- Road gradient -->
    <linearGradient id="tw-road" x1="0" y1="0" x2="0" y2="1">
      <stop offset="0%" stop-color="#6EE7B7" stop-opacity="0.25"/>
      <stop offset="100%" stop-color="#059669" stop-opacity="0.12"/>
    </linearGradient>
    <!-- Horizon haze -->
    <linearGradient id="tw-haze" x1="0" y1="0" x2="0" y2="1">
      <stop offset="0%" stop-color="#ECFDF5" stop-opacity="0"/>
      <stop offset="100%" stop-color="#ECFDF5" stop-opacity="0.55"/>
    </linearGradient>
    <!-- Building grad A -->
    <linearGradient id="tw-bldA" x1="0" y1="0" x2="0" y2="1">
      <stop offset="0%" stop-color="#D1FAE5"/>
      <stop offset="100%" stop-color="#A7F3D0"/>
    </linearGradient>
    <!-- Building grad B -->
    <linearGradient id="tw-bldB" x1="0" y1="0" x2="0" y2="1">
      <stop offset="0%" stop-color="#ECFDF5"/>
      <stop offset="100%" stop-color="#D1FAE5"/>
    </linearGradient>
    <!-- Crane highlight -->
    <linearGradient id="tw-crane" x1="0" y1="0" x2="1" y2="0">
      <stop offset="0%" stop-color="#059669" stop-opacity="0.5"/>
      <stop offset="100%" stop-color="#059669" stop-opacity="0.2"/>
    </linearGradient>
    <!-- Truck cab -->
    <linearGradient id="tw-cab" x1="0" y1="0" x2="0" y2="1">
      <stop offset="0%" stop-color="#ECFDF5"/>
      <stop offset="100%" stop-color="#D1FAE5"/>
    </linearGradient>
    <!-- Truck trailer -->
    <linearGradient id="tw-trailer" x1="0" y1="0" x2="0" y2="1">
      <stop offset="0%" stop-color="#F0FDF4"/>
      <stop offset="100%" stop-color="#E8FDF2"/>
    </linearGradient>
    <!-- Drop shadow -->
    <filter id="tw-soft" x="-10%" y="-10%" width="120%" height="120%">
      <feDropShadow dx="0" dy="2" stdDeviation="3" flood-color="#059669" flood-opacity="0.10"/>
    </filter>
    <!-- Mountain mist -->
    <filter id="tw-mist" x="-5%" y="-5%" width="110%" height="110%">
      <feGaussianBlur stdDeviation="2"/>
    </filter>
  </defs>

  <!-- Sky background -->
  <rect width="900" height="180" fill="url(#tw-sky)"/>

  <!-- Sun / glow -->
  <circle cx="450" cy="38" r="26" fill="#059669" fill-opacity="0.07"/>
  <circle cx="450" cy="38" r="16" fill="#059669" fill-opacity="0.09"/>
  <circle cx="450" cy="38" r="8"  fill="#059669" fill-opacity="0.14"/>

  <!-- Distant mountains (far left) -->
  <g filter="url(#tw-mist)" opacity="0.30">
    <path d="M0 110 L28 74 L56 105 L80 68 L108 100 L0 100 Z" fill="#059669"/>
    <path d="M60 110 L88 78 L116 100 Z" fill="#047857"/>
  </g>
  <!-- Distant mountains (far right) -->
  <g filter="url(#tw-mist)" opacity="0.28">
    <path d="M900 110 L872 76 L844 105 L820 70 L792 102 L900 102 Z" fill="#059669"/>
    <path d="M840 110 L812 80 L784 102 Z" fill="#047857"/>
  </g>

  <!-- ─── PORT SKYLINE (left cluster) ─── -->

  <!-- Port building 1 -->
  <rect x="22" y="88" width="28" height="62" rx="2" fill="url(#tw-bldA)" stroke="#059669" stroke-width="0.8" stroke-opacity="0.3"/>
  <!-- Windows grid -->
  <rect x="27" y="93"  width="5" height="5" rx="1" fill="#059669" fill-opacity="0.18"/>
  <rect x="35" y="93"  width="5" height="5" rx="1" fill="#059669" fill-opacity="0.18"/>
  <rect x="27" y="102" width="5" height="5" rx="1" fill="#059669" fill-opacity="0.14"/>
  <rect x="35" y="102" width="5" height="5" rx="1" fill="#059669" fill-opacity="0.14"/>
  <rect x="27" y="111" width="5" height="5" rx="1" fill="#059669" fill-opacity="0.10"/>
  <rect x="35" y="111" width="5" height="5" rx="1" fill="#059669" fill-opacity="0.10"/>

  <!-- Port building 2 (taller) -->
  <rect x="52" y="72" width="22" height="78" rx="2" fill="url(#tw-bldB)" stroke="#059669" stroke-width="0.8" stroke-opacity="0.25"/>
  <rect x="57" y="78"  width="4" height="4" rx="0.5" fill="#059669" fill-opacity="0.2"/>
  <rect x="64" y="78"  width="4" height="4" rx="0.5" fill="#059669" fill-opacity="0.2"/>
  <rect x="57" y="86"  width="4" height="4" rx="0.5" fill="#059669" fill-opacity="0.15"/>
  <rect x="64" y="86"  width="4" height="4" rx="0.5" fill="#059669" fill-opacity="0.15"/>
  <rect x="57" y="94"  width="4" height="4" rx="0.5" fill="#059669" fill-opacity="0.12"/>
  <rect x="64" y="94"  width="4" height="4" rx="0.5" fill="#059669" fill-opacity="0.12"/>
  <!-- Rooftop antenna -->
  <line x1="63" y1="72" x2="63" y2="60" stroke="#059669" stroke-width="1" stroke-opacity="0.35"/>
  <circle cx="63" cy="59" r="2" fill="#059669" fill-opacity="0.25"/>

  <!-- Warehouse -->
  <rect x="78" y="100" width="48" height="50" rx="2" fill="#ECFDF5" stroke="#059669" stroke-width="0.8" stroke-opacity="0.2"/>
  <path d="M78 100 L102 88 L126 100 Z" fill="#D1FAE5" stroke="#059669" stroke-width="0.8" stroke-opacity="0.2"/>
  <!-- Warehouse door -->
  <rect x="96" y="120" width="12" height="30" rx="1" fill="#059669" fill-opacity="0.1" stroke="#059669" stroke-width="0.6" stroke-opacity="0.2"/>

  <!-- ─── PORT CRANE (left) ─── -->
  <g filter="url(#tw-soft)">
    <!-- Vertical mast -->
    <rect x="134" y="52" width="8" height="98" rx="2" fill="url(#tw-crane)"/>
    <!-- Horizontal boom -->
    <rect x="104" y="52" width="80" height="7" rx="2" fill="url(#tw-crane)"/>
    <!-- Counterweight arm -->
    <rect x="179" y="52" width="24" height="5" rx="1" fill="#059669" fill-opacity="0.22"/>
    <rect x="197" y="46" width="6" height="12" rx="1" fill="#059669" fill-opacity="0.28"/>
    <!-- Trolley + cable + hook -->
    <rect x="126" y="56" width="8" height="4" rx="1" fill="#059669" fill-opacity="0.4"/>
    <line x1="130" y1="60" x2="130" y2="82" stroke="#059669" stroke-width="1" stroke-opacity="0.35"/>
    <path d="M126 82 Q130 88 134 82" stroke="#059669" stroke-width="1.5" stroke-linecap="round" fill="none" stroke-opacity="0.4"/>
    <!-- Leg left -->
    <line x1="136" y1="150" x2="124" y2="180" stroke="#059669" stroke-width="3" stroke-linecap="round" stroke-opacity="0.25"/>
    <!-- Leg right -->
    <line x1="140" y1="150" x2="152" y2="180" stroke="#059669" stroke-width="3" stroke-linecap="round" stroke-opacity="0.25"/>
    <!-- Cross bracing -->
    <line x1="124" y1="170" x2="152" y2="160" stroke="#059669" stroke-width="1" stroke-opacity="0.18"/>
    <line x1="152" y1="170" x2="124" y2="160" stroke="#059669" stroke-width="1" stroke-opacity="0.18"/>
  </g>

  <!-- ─── CITY SKYLINE (centre-left) ─── -->
  <!-- Tower A -->
  <rect x="240" y="62" width="18" height="88" rx="2" fill="url(#tw-bldB)" stroke="#059669" stroke-width="0.7" stroke-opacity="0.2"/>
  <rect x="244" y="67" width="4" height="4" rx="0.5" fill="#059669" fill-opacity="0.18"/>
  <rect x="251" y="67" width="4" height="4" rx="0.5" fill="#059669" fill-opacity="0.18"/>
  <rect x="244" y="75" width="4" height="4" rx="0.5" fill="#059669" fill-opacity="0.14"/>
  <rect x="251" y="75" width="4" height="4" rx="0.5" fill="#059669" fill-opacity="0.14"/>
  <rect x="244" y="83" width="4" height="4" rx="0.5" fill="#059669" fill-opacity="0.12"/>
  <rect x="251" y="83" width="4" height="4" rx="0.5" fill="#059669" fill-opacity="0.12"/>
  <!-- Spire -->
  <line x1="249" y1="62" x2="249" y2="50" stroke="#059669" stroke-width="1.5" stroke-opacity="0.3"/>

  <!-- Tower B -->
  <rect x="262" y="78" width="14" height="72" rx="2" fill="url(#tw-bldA)" stroke="#059669" stroke-width="0.7" stroke-opacity="0.2"/>
  <rect x="265" y="83" width="3" height="3" rx="0.5" fill="#059669" fill-opacity="0.16"/>
  <rect x="271" y="83" width="3" height="3" rx="0.5" fill="#059669" fill-opacity="0.16"/>
  <rect x="265" y="90" width="3" height="3" rx="0.5" fill="#059669" fill-opacity="0.13"/>
  <rect x="271" y="90" width="3" height="3" rx="0.5" fill="#059669" fill-opacity="0.13"/>

  <!-- Tower C (glass) -->
  <rect x="280" y="54" width="16" height="96" rx="1" fill="#ECFDF5" stroke="#059669" stroke-width="0.7" stroke-opacity="0.18"/>
  <!-- Glass panel lines -->
  <line x1="288" y1="54" x2="288" y2="150" stroke="#059669" stroke-width="0.5" stroke-opacity="0.12"/>
  <rect x="282" y="60" width="4" height="7" rx="0.5" fill="#059669" fill-opacity="0.1"/>
  <rect x="290" y="60" width="4" height="7" rx="0.5" fill="#059669" fill-opacity="0.1"/>
  <rect x="282" y="72" width="4" height="7" rx="0.5" fill="#059669" fill-opacity="0.08"/>
  <rect x="290" y="72" width="4" height="7" rx="0.5" fill="#059669" fill-opacity="0.08"/>
  <rect x="282" y="84" width="4" height="7" rx="0.5" fill="#059669" fill-opacity="0.06"/>
  <rect x="290" y="84" width="4" height="7" rx="0.5" fill="#059669" fill-opacity="0.06"/>

  <!-- Tower D -->
  <rect x="300" y="82" width="12" height="68" rx="2" fill="url(#tw-bldB)" stroke="#059669" stroke-width="0.7" stroke-opacity="0.18"/>

  <!-- ─── ELEVATED HIGHWAY BRIDGE (centre) ─── -->
  <!-- Deck -->
  <rect x="340" y="112" width="220" height="10" rx="3" fill="#D1FAE5" stroke="#059669" stroke-width="0.8" stroke-opacity="0.3"/>
  <!-- Underside -->
  <rect x="344" y="122" width="212" height="4" rx="1" fill="#059669" fill-opacity="0.06"/>
  <!-- Support pillars -->
  <rect x="364" y="122" width="8" height="38" rx="2" fill="#D1FAE5" stroke="#059669" stroke-width="0.6" stroke-opacity="0.25"/>
  <rect x="418" y="122" width="8" height="38" rx="2" fill="#D1FAE5" stroke="#059669" stroke-width="0.6" stroke-opacity="0.25"/>
  <rect x="472" y="122" width="8" height="38" rx="2" fill="#D1FAE5" stroke="#059669" stroke-width="0.6" stroke-opacity="0.25"/>
  <rect x="526" y="122" width="8" height="38" rx="2" fill="#D1FAE5" stroke="#059669" stroke-width="0.6" stroke-opacity="0.25"/>
  <!-- Pillar footings -->
  <rect x="361" y="158" width="14" height="5" rx="1" fill="#A7F3D0" fill-opacity="0.5"/>
  <rect x="415" y="158" width="14" height="5" rx="1" fill="#A7F3D0" fill-opacity="0.5"/>
  <rect x="469" y="158" width="14" height="5" rx="1" fill="#A7F3D0" fill-opacity="0.5"/>
  <rect x="523" y="158" width="14" height="5" rx="1" fill="#A7F3D0" fill-opacity="0.5"/>
  <!-- Guard rail -->
  <line x1="340" y1="112" x2="560" y2="112" stroke="#059669" stroke-width="1.2" stroke-opacity="0.25"/>
  <line x1="340" y1="108" x2="560" y2="108" stroke="#059669" stroke-width="0.7" stroke-opacity="0.15"/>
  <!-- Road lane dash on bridge -->
  <line x1="370" y1="117" x2="390" y2="117" stroke="#059669" stroke-width="1" stroke-opacity="0.2" stroke-dasharray="8 6"/>
  <line x1="424" y1="117" x2="444" y2="117" stroke="#059669" stroke-width="1" stroke-opacity="0.2" stroke-dasharray="8 6"/>
  <line x1="478" y1="117" x2="498" y2="117" stroke="#059669" stroke-width="1" stroke-opacity="0.2" stroke-dasharray="8 6"/>

  <!-- ─── SMALL TRUCK on bridge ─── -->
  <g filter="url(#tw-soft)" transform="translate(388 97)">
    <!-- Trailer -->
    <rect x="0" y="4" width="52" height="15" rx="2" fill="url(#tw-trailer)" stroke="#059669" stroke-width="0.9" stroke-opacity="0.3"/>
    <!-- Brand stripe on trailer -->
    <rect x="2" y="7" width="48" height="3" rx="1" fill="#059669" fill-opacity="0.12"/>
    <!-- Cab -->
    <rect x="52" y="2" width="20" height="17" rx="3" fill="url(#tw-cab)" stroke="#059669" stroke-width="1" stroke-opacity="0.35"/>
    <!-- Windshield -->
    <rect x="55" y="4" width="12" height="7" rx="1.5" fill="#059669" fill-opacity="0.15"/>
    <!-- Exhaust -->
    <line x1="70" y1="2" x2="70" y2="-4" stroke="#059669" stroke-width="1.5" stroke-linecap="round" stroke-opacity="0.3"/>
    <circle cx="70" cy="-5" r="2" fill="#059669" fill-opacity="0.1"/>
    <!-- Wheels -->
    <circle cx="10"  cy="19" r="4" fill="#059669" fill-opacity="0.2" stroke="#059669" stroke-width="1" stroke-opacity="0.3"/>
    <circle cx="42"  cy="19" r="4" fill="#059669" fill-opacity="0.2" stroke="#059669" stroke-width="1" stroke-opacity="0.3"/>
    <circle cx="63"  cy="19" r="4" fill="#059669" fill-opacity="0.2" stroke="#059669" stroke-width="1" stroke-opacity="0.3"/>
  </g>

  <!-- ─── CITY SKYLINE (centre-right) ─── -->
  <!-- Tower E -->
  <rect x="580" y="70" width="16" height="80" rx="2" fill="url(#tw-bldB)" stroke="#059669" stroke-width="0.7" stroke-opacity="0.2"/>
  <rect x="583" y="76" width="4" height="4" rx="0.5" fill="#059669" fill-opacity="0.15"/>
  <rect x="590" y="76" width="4" height="4" rx="0.5" fill="#059669" fill-opacity="0.15"/>
  <rect x="583" y="84" width="4" height="4" rx="0.5" fill="#059669" fill-opacity="0.12"/>
  <rect x="590" y="84" width="4" height="4" rx="0.5" fill="#059669" fill-opacity="0.12"/>
  <!-- Diamond spire -->
  <path d="M588 70 L592 62 L596 70 Z" fill="#059669" fill-opacity="0.2"/>

  <!-- Tower F -->
  <rect x="600" y="82" width="14" height="68" rx="2" fill="url(#tw-bldA)" stroke="#059669" stroke-width="0.7" stroke-opacity="0.18"/>
  <!-- Tower G (tall) -->
  <rect x="618" y="58" width="20" height="92" rx="2" fill="#ECFDF5" stroke="#059669" stroke-width="0.7" stroke-opacity="0.18"/>
  <line x1="628" y1="58" x2="628" y2="150" stroke="#059669" stroke-width="0.5" stroke-opacity="0.1"/>
  <rect x="621" y="64" width="4" height="6" rx="0.5" fill="#059669" fill-opacity="0.12"/>
  <rect x="629" y="64" width="4" height="6" rx="0.5" fill="#059669" fill-opacity="0.12"/>
  <rect x="621" y="74" width="4" height="6" rx="0.5" fill="#059669" fill-opacity="0.1"/>
  <rect x="629" y="74" width="4" height="6" rx="0.5" fill="#059669" fill-opacity="0.1"/>
  <!-- Antenna -->
  <line x1="628" y1="58" x2="628" y2="44" stroke="#059669" stroke-width="1.2" stroke-opacity="0.28"/>
  <circle cx="628" cy="43" r="2" fill="#059669" fill-opacity="0.2"/>

  <!-- Tower H (short) -->
  <rect x="642" y="95" width="12" height="55" rx="2" fill="url(#tw-bldB)" stroke="#059669" stroke-width="0.7" stroke-opacity="0.16"/>

  <!-- ─── PORT CRANE (right) ─── -->
  <g filter="url(#tw-soft)">
    <!-- Mast -->
    <rect x="756" y="46" width="8" height="104" rx="2" fill="url(#tw-crane)"/>
    <!-- Main boom -->
    <rect x="718" y="46" width="80" height="6" rx="2" fill="url(#tw-crane)"/>
    <!-- Counter arm -->
    <rect x="764" y="46" width="26" height="5" rx="1" fill="#059669" fill-opacity="0.2"/>
    <rect x="784" y="40" width="6" height="12" rx="1" fill="#059669" fill-opacity="0.25"/>
    <!-- Trolley + cable -->
    <rect x="730" y="50" width="8" height="4" rx="1" fill="#059669" fill-opacity="0.38"/>
    <line x1="734" y1="54" x2="734" y2="80" stroke="#059669" stroke-width="1" stroke-opacity="0.3"/>
    <path d="M730 80 Q734 86 738 80" stroke="#059669" stroke-width="1.5" stroke-linecap="round" fill="none" stroke-opacity="0.35"/>
    <!-- Legs -->
    <line x1="758" y1="150" x2="746" y2="180" stroke="#059669" stroke-width="3" stroke-linecap="round" stroke-opacity="0.2"/>
    <line x1="762" y1="150" x2="774" y2="180" stroke="#059669" stroke-width="3" stroke-linecap="round" stroke-opacity="0.2"/>
    <!-- Bracing -->
    <line x1="746" y1="168" x2="774" y2="158" stroke="#059669" stroke-width="1" stroke-opacity="0.15"/>
    <line x1="774" y1="168" x2="746" y2="158" stroke="#059669" stroke-width="1" stroke-opacity="0.15"/>
  </g>

  <!-- ─── RIGHT PORT BUILDINGS ─── -->
  <rect x="800" y="92" width="30" height="58" rx="2" fill="url(#tw-bldA)" stroke="#059669" stroke-width="0.7" stroke-opacity="0.22"/>
  <rect x="805" y="98"  width="4" height="4" rx="0.5" fill="#059669" fill-opacity="0.16"/>
  <rect x="813" y="98"  width="4" height="4" rx="0.5" fill="#059669" fill-opacity="0.16"/>
  <rect x="821" y="98"  width="4" height="4" rx="0.5" fill="#059669" fill-opacity="0.16"/>
  <rect x="805" y="106" width="4" height="4" rx="0.5" fill="#059669" fill-opacity="0.12"/>
  <rect x="813" y="106" width="4" height="4" rx="0.5" fill="#059669" fill-opacity="0.12"/>
  <rect x="821" y="106" width="4" height="4" rx="0.5" fill="#059669" fill-opacity="0.12"/>

  <rect x="834" y="76" width="22" height="74" rx="2" fill="url(#tw-bldB)" stroke="#059669" stroke-width="0.7" stroke-opacity="0.2"/>
  <rect x="838" y="82" width="4" height="5" rx="0.5" fill="#059669" fill-opacity="0.15"/>
  <rect x="845" y="82" width="4" height="5" rx="0.5" fill="#059669" fill-opacity="0.15"/>
  <rect x="838" y="91" width="4" height="5" rx="0.5" fill="#059669" fill-opacity="0.12"/>
  <rect x="845" y="91" width="4" height="5" rx="0.5" fill="#059669" fill-opacity="0.12"/>
  <rect x="838" y="100" width="4" height="5" rx="0.5" fill="#059669" fill-opacity="0.10"/>
  <rect x="845" y="100" width="4" height="5" rx="0.5" fill="#059669" fill-opacity="0.10"/>
  <!-- Antenna right -->
  <line x1="845" y1="76" x2="845" y2="62" stroke="#059669" stroke-width="1" stroke-opacity="0.28"/>

  <!-- ─── GROUND ROAD (full width) ─── -->
  <rect x="0" y="150" width="900" height="30" fill="url(#tw-road)" rx="0"/>
  <!-- Road centre dashes -->
  <g stroke="#059669" stroke-width="1.5" stroke-linecap="round" stroke-opacity="0.18">
    <line x1="0"   y1="165" x2="28"  y2="165"/>
    <line x1="44"  y1="165" x2="72"  y2="165"/>
    <line x1="88"  y1="165" x2="116" y2="165"/>
    <line x1="132" y1="165" x2="160" y2="165"/>
    <line x1="176" y1="165" x2="204" y2="165"/>
    <line x1="220" y1="165" x2="248" y2="165"/>
    <line x1="264" y1="165" x2="292" y2="165"/>
    <line x1="308" y1="165" x2="336" y2="165"/>
    <line x1="352" y1="165" x2="380" y2="165"/>
    <line x1="396" y1="165" x2="424" y2="165"/>
    <line x1="440" y1="165" x2="468" y2="165"/>
    <line x1="484" y1="165" x2="512" y2="165"/>
    <line x1="528" y1="165" x2="556" y2="165"/>
    <line x1="572" y1="165" x2="600" y2="165"/>
    <line x1="616" y1="165" x2="644" y2="165"/>
    <line x1="660" y1="165" x2="688" y2="165"/>
    <line x1="704" y1="165" x2="732" y2="165"/>
    <line x1="748" y1="165" x2="776" y2="165"/>
    <line x1="792" y1="165" x2="820" y2="165"/>
    <line x1="836" y1="165" x2="864" y2="165"/>
    <line x1="880" y1="165" x2="900" y2="165"/>
  </g>

  <!-- ─── LARGE TRUCK (left, heading right) ─── -->
  <g filter="url(#tw-soft)" transform="translate(60 148)">
    <!-- Trailer -->
    <rect x="0" y="-18" width="76" height="22" rx="3" fill="url(#tw-trailer)" stroke="#059669" stroke-width="1" stroke-opacity="0.28"/>
    <!-- Brand bar -->
    <rect x="3" y="-13" width="70" height="4" rx="1.5" fill="#059669" fill-opacity="0.14"/>
    <!-- Logo mark -->
    <rect x="58" y="-16" width="14" height="10" rx="1.5" fill="#059669" fill-opacity="0.1" stroke="#059669" stroke-width="0.6" stroke-opacity="0.2"/>
    <!-- Cab -->
    <rect x="76" y="-22" width="30" height="26" rx="4" fill="url(#tw-cab)" stroke="#059669" stroke-width="1.2" stroke-opacity="0.35"/>
    <!-- Windshield -->
    <rect x="80" y="-19" width="18" height="10" rx="2" fill="#059669" fill-opacity="0.16"/>
    <!-- Front bumper -->
    <rect x="102" y="-8" width="4" height="4" rx="1" fill="#059669" fill-opacity="0.2"/>
    <!-- Exhaust stack -->
    <line x1="104" y1="-22" x2="104" y2="-30" stroke="#059669" stroke-width="2" stroke-linecap="round" stroke-opacity="0.25"/>
    <ellipse cx="104" cy="-31" rx="3" ry="2" fill="#059669" fill-opacity="0.08"/>
    <!-- Wheels trailer -->
    <circle cx="16"  cy="6" r="7" fill="#D1FAE5" stroke="#059669" stroke-width="1.2" stroke-opacity="0.3"/>
    <circle cx="16"  cy="6" r="3" fill="#059669" fill-opacity="0.15"/>
    <circle cx="60"  cy="6" r="7" fill="#D1FAE5" stroke="#059669" stroke-width="1.2" stroke-opacity="0.3"/>
    <circle cx="60"  cy="6" r="3" fill="#059669" fill-opacity="0.15"/>
    <!-- Wheel cab -->
    <circle cx="90"  cy="6" r="7" fill="#D1FAE5" stroke="#059669" stroke-width="1.2" stroke-opacity="0.3"/>
    <circle cx="90"  cy="6" r="3" fill="#059669" fill-opacity="0.15"/>
    <!-- Motion streaks -->
    <line x1="-8"  y1="-10" x2="-24" y2="-10" stroke="#059669" stroke-width="1.5" stroke-linecap="round" stroke-opacity="0.18"/>
    <line x1="-8"  y1="-5"  x2="-20" y2="-5"  stroke="#059669" stroke-width="1"   stroke-linecap="round" stroke-opacity="0.12"/>
    <line x1="-8"  y1="-16" x2="-16" y2="-16" stroke="#059669" stroke-width="1"   stroke-linecap="round" stroke-opacity="0.10"/>
  </g>

  <!-- ─── SMALL VAN (right, heading left) ─── -->
  <g filter="url(#tw-soft)" transform="translate(760 148) scale(-1,1)">
    <!-- Body -->
    <rect x="0" y="-16" width="48" height="20" rx="3" fill="url(#tw-cab)" stroke="#059669" stroke-width="1" stroke-opacity="0.28"/>
    <!-- Windshield -->
    <rect x="34" y="-14" width="10" height="8" rx="1.5" fill="#059669" fill-opacity="0.15"/>
    <!-- Side windows -->
    <rect x="8"  y="-13" width="8"  height="6" rx="1" fill="#059669" fill-opacity="0.1"/>
    <rect x="20" y="-13" width="8"  height="6" rx="1" fill="#059669" fill-opacity="0.1"/>
    <!-- Bumper -->
    <rect x="44" y="-8"  width="4"  height="4" rx="1" fill="#059669" fill-opacity="0.2"/>
    <!-- Wheels -->
    <circle cx="10" cy="6" r="6" fill="#D1FAE5" stroke="#059669" stroke-width="1" stroke-opacity="0.28"/>
    <circle cx="10" cy="6" r="2.5" fill="#059669" fill-opacity="0.15"/>
    <circle cx="38" cy="6" r="6" fill="#D1FAE5" stroke="#059669" stroke-width="1" stroke-opacity="0.28"/>
    <circle cx="38" cy="6" r="2.5" fill="#059669" fill-opacity="0.15"/>
    <!-- Motion streaks (mirrored) -->
    <line x1="-6" y1="-8"  x2="-18" y2="-8"  stroke="#059669" stroke-width="1.2" stroke-linecap="round" stroke-opacity="0.18"/>
    <line x1="-6" y1="-3"  x2="-14" y2="-3"  stroke="#059669" stroke-width="0.8" stroke-linecap="round" stroke-opacity="0.12"/>
  </g>

  <!-- ─── TREES ─── -->
  <!-- Left trees -->
  <g fill="#059669" fill-opacity="0.18">
    <ellipse cx="212" cy="138" rx="10" ry="14"/>
    <rect x="210" y="148" width="4" height="12" rx="1"/>
    <ellipse cx="228" cy="142" rx="7" ry="10"/>
    <rect x="226" y="150" width="4" height="8" rx="1"/>
  </g>
  <!-- Right trees -->
  <g fill="#059669" fill-opacity="0.16">
    <ellipse cx="668" cy="140" rx="9" ry="12"/>
    <rect x="666" y="149" width="4" height="11" rx="1"/>
    <ellipse cx="682" cy="144" rx="7" ry="10"/>
    <rect x="680" y="152" width="4" height="8" rx="1"/>
    <ellipse cx="694" cy="142" rx="8" ry="11"/>
    <rect x="692" y="150" width="4" height="10" rx="1"/>
  </g>

  <!-- ─── FLOATING CLOUD-LIKE ELEMENTS ─── -->
  <!-- Cloud left -->
  <g fill="#059669" fill-opacity="0.06">
    <ellipse cx="80" cy="32" rx="24" ry="8"/>
    <ellipse cx="95" cy="28" rx="16" ry="6"/>
    <ellipse cx="64" cy="30" rx="14" ry="5"/>
  </g>
  <!-- Cloud centre -->
  <g fill="#059669" fill-opacity="0.05">
    <ellipse cx="450" cy="22" rx="30" ry="9"/>
    <ellipse cx="468" cy="18" rx="18" ry="6"/>
    <ellipse cx="432" cy="20" rx="16" ry="6"/>
  </g>
  <!-- Cloud right -->
  <g fill="#059669" fill-opacity="0.06">
    <ellipse cx="820" cy="30" rx="22" ry="7"/>
    <ellipse cx="835" cy="26" rx="14" ry="5"/>
    <ellipse cx="806" cy="28" rx="12" ry="5"/>
  </g>

  <!-- ─── DECORATIVE SPARKLES ─── -->
  <g stroke="#059669" stroke-width="1.4" stroke-linecap="round" stroke-opacity="0.3">
    <line x1="210" y1="54" x2="216" y2="60"/>
    <line x1="216" y1="54" x2="210" y2="60"/>
  </g>
  <g stroke="#059669" stroke-width="1.2" stroke-linecap="round" stroke-opacity="0.25">
    <line x1="680" y1="52" x2="685" y2="57"/>
    <line x1="685" y1="52" x2="680" y2="57"/>
  </g>
  <circle cx="228" cy="48" r="2"   fill="#059669" fill-opacity="0.15"/>
  <circle cx="670" cy="42" r="1.5" fill="#059669" fill-opacity="0.12"/>
  <circle cx="340" cy="62" r="1.5" fill="#059669" fill-opacity="0.14"/>
  <circle cx="564" cy="60" r="2"   fill="#059669" fill-opacity="0.12"/>

  <!-- Horizon haze overlay -->
  <rect x="0" y="120" width="900" height="60" fill="url(#tw-haze)" rx="0"/>
</svg>
