<svg xmlns="http://www.w3.org/2000/svg" viewBox="0 0 900 180" fill="none">
  <defs>
    
    <linearGradient id="tw-sky" x1="0" y1="0" x2="0" y2="1">
      <stop offset="0%" stop-color="#ECFDF5"></stop>
      <stop offset="100%" stop-color="#F0FDF4"></stop>
    </linearGradient>
    
    <linearGradient id="tw-ground" x1="0" y1="0" x2="0" y2="1">
      <stop offset="0%" stop-color="#D1FAE5"></stop>
      <stop offset="100%" stop-color="#A7F3D0"></stop>
    </linearGradient>
    
    <linearGradient id="tw-road" x1="0" y1="0" x2="0" y2="1">
      <stop offset="0%" stop-color="#6EE7B7" stop-opacity="0.25"></stop>
      <stop offset="100%" stop-color="#059669" stop-opacity="0.12"></stop>
    </linearGradient>
    
    <linearGradient id="tw-haze" x1="0" y1="0" x2="0" y2="1">
      <stop offset="0%" stop-color="#ECFDF5" stop-opacity="0"></stop>
      <stop offset="100%" stop-color="#ECFDF5" stop-opacity="0.55"></stop>
    </linearGradient>
    
    <linearGradient id="tw-bldA" x1="0" y1="0" x2="0" y2="1">
      <stop offset="0%" stop-color="#D1FAE5"></stop>
      <stop offset="100%" stop-color="#A7F3D0"></stop>
    </linearGradient>
    
    <linearGradient id="tw-bldB" x1="0" y1="0" x2="0" y2="1">
      <stop offset="0%" stop-color="#ECFDF5"></stop>
      <stop offset="100%" stop-color="#D1FAE5"></stop>
    </linearGradient>
    
    <linearGradient id="tw-crane" x1="0" y1="0" x2="1" y2="0">
      <stop offset="0%" stop-color="#059669" stop-opacity="0.5"></stop>
      <stop offset="100%" stop-color="#059669" stop-opacity="0.2"></stop>
    </linearGradient>
    
    <linearGradient id="tw-cab" x1="0" y1="0" x2="0" y2="1">
      <stop offset="0%" stop-color="#ECFDF5"></stop>
      <stop offset="100%" stop-color="#D1FAE5"></stop>
    </linearGradient>
    
    <linearGradient id="tw-trailer" x1="0" y1="0" x2="0" y2="1">
      <stop offset="0%" stop-color="#F0FDF4"></stop>
      <stop offset="100%" stop-color="#E8FDF2"></stop>
    </linearGradient>
    
    <filter id="tw-soft" x="-10%" y="-10%" width="120%" height="120%">
      <feDropShadow dx="0" dy="2" stdDeviation="3" flood-color="#059669" flood-opacity="0.10"></feDropShadow>
    </filter>
    
    <filter id="tw-mist" x="-5%" y="-5%" width="110%" height="110%">
      <feGaussianBlur stdDeviation="2"></feGaussianBlur>
    </filter>
  </defs>

  
  <rect width="900" height="180" fill="url(#tw-sky)"></rect>

  
  <circle cx="450" cy="38" r="26" fill="#059669" fill-opacity="0.07"></circle>
  <circle cx="450" cy="38" r="16" fill="#059669" fill-opacity="0.09"></circle>
  <circle cx="450" cy="38" r="8" fill="#059669" fill-opacity="0.14"></circle>

  
  <g filter="url(#tw-mist)" opacity="0.30">
    <path d="M0 110 L28 74 L56 105 L80 68 L108 100 L0 100 Z" fill="#059669"></path>
    <path d="M60 110 L88 78 L116 100 Z" fill="#047857"></path>
  </g>
  
  <g filter="url(#tw-mist)" opacity="0.28">
    <path d="M900 110 L872 76 L844 105 L820 70 L792 102 L900 102 Z" fill="#059669"></path>
    <path d="M840 110 L812 80 L784 102 Z" fill="#047857"></path>
  </g>

  

  
  <rect x="22" y="88" width="28" height="62" rx="2" fill="url(#tw-bldA)" stroke="#059669" stroke-width="0.8" stroke-opacity="0.3"></rect>
  
  <rect x="27" y="93" width="5" height="5" rx="1" fill="#059669" fill-opacity="0.18"></rect>
  <rect x="35" y="93" width="5" height="5" rx="1" fill="#059669" fill-opacity="0.18"></rect>
  <rect x="27" y="102" width="5" height="5" rx="1" fill="#059669" fill-opacity="0.14"></rect>
  <rect x="35" y="102" width="5" height="5" rx="1" fill="#059669" fill-opacity="0.14"></rect>
  <rect x="27" y="111" width="5" height="5" rx="1" fill="#059669" fill-opacity="0.10"></rect>
  <rect x="35" y="111" width="5" height="5" rx="1" fill="#059669" fill-opacity="0.10"></rect>

  
  <rect x="52" y="72" width="22" height="78" rx="2" fill="url(#tw-bldB)" stroke="#059669" stroke-width="0.8" stroke-opacity="0.25"></rect>
  <rect x="57" y="78" width="4" height="4" rx="0.5" fill="#059669" fill-opacity="0.2"></rect>
  <rect x="64" y="78" width="4" height="4" rx="0.5" fill="#059669" fill-opacity="0.2"></rect>
  <rect x="57" y="86" width="4" height="4" rx="0.5" fill="#059669" fill-opacity="0.15"></rect>
  <rect x="64" y="86" width="4" height="4" rx="0.5" fill="#059669" fill-opacity="0.15"></rect>
  <rect x="57" y="94" width="4" height="4" rx="0.5" fill="#059669" fill-opacity="0.12"></rect>
  <rect x="64" y="94" width="4" height="4" rx="0.5" fill="#059669" fill-opacity="0.12"></rect>
  
  <line x1="63" y1="72" x2="63" y2="60" stroke="#059669" stroke-width="1" stroke-opacity="0.35"></line>
  <circle cx="63" cy="59" r="2" fill="#059669" fill-opacity="0.25"></circle>

  
  <rect x="78" y="100" width="48" height="50" rx="2" fill="#ECFDF5" stroke="#059669" stroke-width="0.8" stroke-opacity="0.2"></rect>
  <path d="M78 100 L102 88 L126 100 Z" fill="#D1FAE5" stroke="#059669" stroke-width="0.8" stroke-opacity="0.2"></path>
  
  <rect x="96" y="120" width="12" height="30" rx="1" fill="#059669" fill-opacity="0.1" stroke="#059669" stroke-width="0.6" stroke-opacity="0.2"></rect>

  
  <g filter="url(#tw-soft)">
    
    <rect x="134" y="52" width="8" height="98" rx="2" fill="url(#tw-crane)"></rect>
    
    <rect x="104" y="52" width="80" height="7" rx="2" fill="url(#tw-crane)"></rect>
    
    <rect x="179" y="52" width="24" height="5" rx="1" fill="#059669" fill-opacity="0.22"></rect>
    <rect x="197" y="46" width="6" height="12" rx="1" fill="#059669" fill-opacity="0.28"></rect>
    
    <rect x="126" y="56" width="8" height="4" rx="1" fill="#059669" fill-opacity="0.4"></rect>
    <line x1="130" y1="60" x2="130" y2="82" stroke="#059669" stroke-width="1" stroke-opacity="0.35"></line>
    <path d="M126 82 Q130 88 134 82" stroke="#059669" stroke-width="1.5" stroke-linecap="round" fill="none" stroke-opacity="0.4"></path>
    
    <line x1="136" y1="150" x2="124" y2="180" stroke="#059669" stroke-width="3" stroke-linecap="round" stroke-opacity="0.25"></line>
    
    <line x1="140" y1="150" x2="152" y2="180" stroke="#059669" stroke-width="3" stroke-linecap="round" stroke-opacity="0.25"></line>
    
    <line x1="124" y1="170" x2="152" y2="160" stroke="#059669" stroke-width="1" stroke-opacity="0.18"></line>
    <line x1="152" y1="170" x2="124" y2="160" stroke="#059669" stroke-width="1" stroke-opacity="0.18"></line>
  </g>

  
  
  <rect x="240" y="62" width="18" height="88" rx="2" fill="url(#tw-bldB)" stroke="#059669" stroke-width="0.7" stroke-opacity="0.2"></rect>
  <rect x="244" y="67" width="4" height="4" rx="0.5" fill="#059669" fill-opacity="0.18"></rect>
  <rect x="251" y="67" width="4" height="4" rx="0.5" fill="#059669" fill-opacity="0.18"></rect>
  <rect x="244" y="75" width="4" height="4" rx="0.5" fill="#059669" fill-opacity="0.14"></rect>
  <rect x="251" y="75" width="4" height="4" rx="0.5" fill="#059669" fill-opacity="0.14"></rect>
  <rect x="244" y="83" width="4" height="4" rx="0.5" fill="#059669" fill-opacity="0.12"></rect>
  <rect x="251" y="83" width="4" height="4" rx="0.5" fill="#059669" fill-opacity="0.12"></rect>
  
  <line x1="249" y1="62" x2="249" y2="50" stroke="#059669" stroke-width="1.5" stroke-opacity="0.3"></line>

  
  <rect x="262" y="78" width="14" height="72" rx="2" fill="url(#tw-bldA)" stroke="#059669" stroke-width="0.7" stroke-opacity="0.2"></rect>
  <rect x="265" y="83" width="3" height="3" rx="0.5" fill="#059669" fill-opacity="0.16"></rect>
  <rect x="271" y="83" width="3" height="3" rx="0.5" fill="#059669" fill-opacity="0.16"></rect>
  <rect x="265" y="90" width="3" height="3" rx="0.5" fill="#059669" fill-opacity="0.13"></rect>
  <rect x="271" y="90" width="3" height="3" rx="0.5" fill="#059669" fill-opacity="0.13"></rect>

  
  <rect x="280" y="54" width="16" height="96" rx="1" fill="#ECFDF5" stroke="#059669" stroke-width="0.7" stroke-opacity="0.18"></rect>
  
  <line x1="288" y1="54" x2="288" y2="150" stroke="#059669" stroke-width="0.5" stroke-opacity="0.12"></line>
  <rect x="282" y="60" width="4" height="7" rx="0.5" fill="#059669" fill-opacity="0.1"></rect>
  <rect x="290" y="60" width="4" height="7" rx="0.5" fill="#059669" fill-opacity="0.1"></rect>
  <rect x="282" y="72" width="4" height="7" rx="0.5" fill="#059669" fill-opacity="0.08"></rect>
  <rect x="290" y="72" width="4" height="7" rx="0.5" fill="#059669" fill-opacity="0.08"></rect>
  <rect x="282" y="84" width="4" height="7" rx="0.5" fill="#059669" fill-opacity="0.06"></rect>
  <rect x="290" y="84" width="4" height="7" rx="0.5" fill="#059669" fill-opacity="0.06"></rect>

  
  <rect x="300" y="82" width="12" height="68" rx="2" fill="url(#tw-bldB)" stroke="#059669" stroke-width="0.7" stroke-opacity="0.18"></rect>

  
  
  <rect x="340" y="112" width="220" height="10" rx="3" fill="#D1FAE5" stroke="#059669" stroke-width="0.8" stroke-opacity="0.3"></rect>
  
  <rect x="344" y="122" width="212" height="4" rx="1" fill="#059669" fill-opacity="0.06"></rect>
  
  <rect x="364" y="122" width="8" height="38" rx="2" fill="#D1FAE5" stroke="#059669" stroke-width="0.6" stroke-opacity="0.25"></rect>
  <rect x="418" y="122" width="8" height="38" rx="2" fill="#D1FAE5" stroke="#059669" stroke-width="0.6" stroke-opacity="0.25"></rect>
  <rect x="472" y="122" width="8" height="38" rx="2" fill="#D1FAE5" stroke="#059669" stroke-width="0.6" stroke-opacity="0.25"></rect>
  <rect x="526" y="122" width="8" height="38" rx="2" fill="#D1FAE5" stroke="#059669" stroke-width="0.6" stroke-opacity="0.25"></rect>
  
  <rect x="361" y="158" width="14" height="5" rx="1" fill="#A7F3D0" fill-opacity="0.5"></rect>
  <rect x="415" y="158" width="14" height="5" rx="1" fill="#A7F3D0" fill-opacity="0.5"></rect>
  <rect x="469" y="158" width="14" height="5" rx="1" fill="#A7F3D0" fill-opacity="0.5"></rect>
  <rect x="523" y="158" width="14" height="5" rx="1" fill="#A7F3D0" fill-opacity="0.5"></rect>
  
  <line x1="340" y1="112" x2="560" y2="112" stroke="#059669" stroke-width="1.2" stroke-opacity="0.25"></line>
  <line x1="340" y1="108" x2="560" y2="108" stroke="#059669" stroke-width="0.7" stroke-opacity="0.15"></line>
  
  <line x1="370" y1="117" x2="390" y2="117" stroke="#059669" stroke-width="1" stroke-opacity="0.2" stroke-dasharray="8 6"></line>
  <line x1="424" y1="117" x2="444" y2="117" stroke="#059669" stroke-width="1" stroke-opacity="0.2" stroke-dasharray="8 6"></line>
  <line x1="478" y1="117" x2="498" y2="117" stroke="#059669" stroke-width="1" stroke-opacity="0.2" stroke-dasharray="8 6"></line>

  
  <g filter="url(#tw-soft)" transform="translate(388 97)">
    
    <rect x="0" y="4" width="52" height="15" rx="2" fill="url(#tw-trailer)" stroke="#059669" stroke-width="0.9" stroke-opacity="0.3"></rect>
    
    <rect x="2" y="7" width="48" height="3" rx="1" fill="#059669" fill-opacity="0.12"></rect>
    
    <rect x="52" y="2" width="20" height="17" rx="3" fill="url(#tw-cab)" stroke="#059669" stroke-width="1" stroke-opacity="0.35"></rect>
    
    <rect x="55" y="4" width="12" height="7" rx="1.5" fill="#059669" fill-opacity="0.15"></rect>
    
    <line x1="70" y1="2" x2="70" y2="-4" stroke="#059669" stroke-width="1.5" stroke-linecap="round" stroke-opacity="0.3"></line>
    <circle cx="70" cy="-5" r="2" fill="#059669" fill-opacity="0.1"></circle>
    
    <circle cx="10" cy="19" r="4" fill="#059669" fill-opacity="0.2" stroke="#059669" stroke-width="1" stroke-opacity="0.3"></circle>
    <circle cx="42" cy="19" r="4" fill="#059669" fill-opacity="0.2" stroke="#059669" stroke-width="1" stroke-opacity="0.3"></circle>
    <circle cx="63" cy="19" r="4" fill="#059669" fill-opacity="0.2" stroke="#059669" stroke-width="1" stroke-opacity="0.3"></circle>
  </g>

  
  
  <rect x="580" y="70" width="16" height="80" rx="2" fill="url(#tw-bldB)" stroke="#059669" stroke-width="0.7" stroke-opacity="0.2"></rect>
  <rect x="583" y="76" width="4" height="4" rx="0.5" fill="#059669" fill-opacity="0.15"></rect>
  <rect x="590" y="76" width="4" height="4" rx="0.5" fill="#059669" fill-opacity="0.15"></rect>
  <rect x="583" y="84" width="4" height="4" rx="0.5" fill="#059669" fill-opacity="0.12"></rect>
  <rect x="590" y="84" width="4" height="4" rx="0.5" fill="#059669" fill-opacity="0.12"></rect>
  
  <path d="M588 70 L592 62 L596 70 Z" fill="#059669" fill-opacity="0.2"></path>

  
  <rect x="600" y="82" width="14" height="68" rx="2" fill="url(#tw-bldA)" stroke="#059669" stroke-width="0.7" stroke-opacity="0.18"></rect>
  
  <rect x="618" y="58" width="20" height="92" rx="2" fill="#ECFDF5" stroke="#059669" stroke-width="0.7" stroke-opacity="0.18"></rect>
  <line x1="628" y1="58" x2="628" y2="150" stroke="#059669" stroke-width="0.5" stroke-opacity="0.1"></line>
  <rect x="621" y="64" width="4" height="6" rx="0.5" fill="#059669" fill-opacity="0.12"></rect>
  <rect x="629" y="64" width="4" height="6" rx="0.5" fill="#059669" fill-opacity="0.12"></rect>
  <rect x="621" y="74" width="4" height="6" rx="0.5" fill="#059669" fill-opacity="0.1"></rect>
  <rect x="629" y="74" width="4" height="6" rx="0.5" fill="#059669" fill-opacity="0.1"></rect>
  
  <line x1="628" y1="58" x2="628" y2="44" stroke="#059669" stroke-width="1.2" stroke-opacity="0.28"></line>
  <circle cx="628" cy="43" r="2" fill="#059669" fill-opacity="0.2"></circle>

  
  <rect x="642" y="95" width="12" height="55" rx="2" fill="url(#tw-bldB)" stroke="#059669" stroke-width="0.7" stroke-opacity="0.16"></rect>

  
  <g filter="url(#tw-soft)">
    
    <rect x="756" y="46" width="8" height="104" rx="2" fill="url(#tw-crane)"></rect>
    
    <rect x="718" y="46" width="80" height="6" rx="2" fill="url(#tw-crane)"></rect>
    
    <rect x="764" y="46" width="26" height="5" rx="1" fill="#059669" fill-opacity="0.2"></rect>
    <rect x="784" y="40" width="6" height="12" rx="1" fill="#059669" fill-opacity="0.25"></rect>
    
    <rect x="730" y="50" width="8" height="4" rx="1" fill="#059669" fill-opacity="0.38"></rect>
    <line x1="734" y1="54" x2="734" y2="80" stroke="#059669" stroke-width="1" stroke-opacity="0.3"></line>
    <path d="M730 80 Q734 86 738 80" stroke="#059669" stroke-width="1.5" stroke-linecap="round" fill="none" stroke-opacity="0.35"></path>
    
    <line x1="758" y1="150" x2="746" y2="180" stroke="#059669" stroke-width="3" stroke-linecap="round" stroke-opacity="0.2"></line>
    <line x1="762" y1="150" x2="774" y2="180" stroke="#059669" stroke-width="3" stroke-linecap="round" stroke-opacity="0.2"></line>
    
    <line x1="746" y1="168" x2="774" y2="158" stroke="#059669" stroke-width="1" stroke-opacity="0.15"></line>
    <line x1="774" y1="168" x2="746" y2="158" stroke="#059669" stroke-width="1" stroke-opacity="0.15"></line>
  </g>

  
  <rect x="800" y="92" width="30" height="58" rx="2" fill="url(#tw-bldA)" stroke="#059669" stroke-width="0.7" stroke-opacity="0.22"></rect>
  <rect x="805" y="98" width="4" height="4" rx="0.5" fill="#059669" fill-opacity="0.16"></rect>
  <rect x="813" y="98" width="4" height="4" rx="0.5" fill="#059669" fill-opacity="0.16"></rect>
  <rect x="821" y="98" width="4" height="4" rx="0.5" fill="#059669" fill-opacity="0.16"></rect>
  <rect x="805" y="106" width="4" height="4" rx="0.5" fill="#059669" fill-opacity="0.12"></rect>
  <rect x="813" y="106" width="4" height="4" rx="0.5" fill="#059669" fill-opacity="0.12"></rect>
  <rect x="821" y="106" width="4" height="4" rx="0.5" fill="#059669" fill-opacity="0.12"></rect>

  <rect x="834" y="76" width="22" height="74" rx="2" fill="url(#tw-bldB)" stroke="#059669" stroke-width="0.7" stroke-opacity="0.2"></rect>
  <rect x="838" y="82" width="4" height="5" rx="0.5" fill="#059669" fill-opacity="0.15"></rect>
  <rect x="845" y="82" width="4" height="5" rx="0.5" fill="#059669" fill-opacity="0.15"></rect>
  <rect x="838" y="91" width="4" height="5" rx="0.5" fill="#059669" fill-opacity="0.12"></rect>
  <rect x="845" y="91" width="4" height="5" rx="0.5" fill="#059669" fill-opacity="0.12"></rect>
  <rect x="838" y="100" width="4" height="5" rx="0.5" fill="#059669" fill-opacity="0.10"></rect>
  <rect x="845" y="100" width="4" height="5" rx="0.5" fill="#059669" fill-opacity="0.10"></rect>
  
  <line x1="845" y1="76" x2="845" y2="62" stroke="#059669" stroke-width="1" stroke-opacity="0.28"></line>

  
  <rect x="0" y="150" width="900" height="30" fill="url(#tw-road)" rx="0"></rect>
  
  <g stroke="#059669" stroke-width="1.5" stroke-linecap="round" stroke-opacity="0.18">
    <line x1="0" y1="165" x2="28" y2="165"></line>
    <line x1="44" y1="165" x2="72" y2="165"></line>
    <line x1="88" y1="165" x2="116" y2="165"></line>
    <line x1="132" y1="165" x2="160" y2="165"></line>
    <line x1="176" y1="165" x2="204" y2="165"></line>
    <line x1="220" y1="165" x2="248" y2="165"></line>
    <line x1="264" y1="165" x2="292" y2="165"></line>
    <line x1="308" y1="165" x2="336" y2="165"></line>
    <line x1="352" y1="165" x2="380" y2="165"></line>
    <line x1="396" y1="165" x2="424" y2="165"></line>
    <line x1="440" y1="165" x2="468" y2="165"></line>
    <line x1="484" y1="165" x2="512" y2="165"></line>
    <line x1="528" y1="165" x2="556" y2="165"></line>
    <line x1="572" y1="165" x2="600" y2="165"></line>
    <line x1="616" y1="165" x2="644" y2="165"></line>
    <line x1="660" y1="165" x2="688" y2="165"></line>
    <line x1="704" y1="165" x2="732" y2="165"></line>
    <line x1="748" y1="165" x2="776" y2="165"></line>
    <line x1="792" y1="165" x2="820" y2="165"></line>
    <line x1="836" y1="165" x2="864" y2="165"></line>
    <line x1="880" y1="165" x2="900" y2="165"></line>
  </g>

  
  <g filter="url(#tw-soft)" transform="translate(60 148)">
    
    <rect x="0" y="-18" width="76" height="22" rx="3" fill="url(#tw-trailer)" stroke="#059669" stroke-width="1" stroke-opacity="0.28"></rect>
    
    <rect x="3" y="-13" width="70" height="4" rx="1.5" fill="#059669" fill-opacity="0.14"></rect>
    
    <rect x="58" y="-16" width="14" height="10" rx="1.5" fill="#059669" fill-opacity="0.1" stroke="#059669" stroke-width="0.6" stroke-opacity="0.2"></rect>
    
    <rect x="76" y="-22" width="30" height="26" rx="4" fill="url(#tw-cab)" stroke="#059669" stroke-width="1.2" stroke-opacity="0.35"></rect>
    
    <rect x="80" y="-19" width="18" height="10" rx="2" fill="#059669" fill-opacity="0.16"></rect>
    
    <rect x="102" y="-8" width="4" height="4" rx="1" fill="#059669" fill-opacity="0.2"></rect>
    
    <line x1="104" y1="-22" x2="104" y2="-30" stroke="#059669" stroke-width="2" stroke-linecap="round" stroke-opacity="0.25"></line>
    <ellipse cx="104" cy="-31" rx="3" ry="2" fill="#059669" fill-opacity="0.08"></ellipse>
    
    <circle cx="16" cy="6" r="7" fill="#D1FAE5" stroke="#059669" stroke-width="1.2" stroke-opacity="0.3"></circle>
    <circle cx="16" cy="6" r="3" fill="#059669" fill-opacity="0.15"></circle>
    <circle cx="60" cy="6" r="7" fill="#D1FAE5" stroke="#059669" stroke-width="1.2" stroke-opacity="0.3"></circle>
    <circle cx="60" cy="6" r="3" fill="#059669" fill-opacity="0.15"></circle>
    
    <circle cx="90" cy="6" r="7" fill="#D1FAE5" stroke="#059669" stroke-width="1.2" stroke-opacity="0.3"></circle>
    <circle cx="90" cy="6" r="3" fill="#059669" fill-opacity="0.15"></circle>
    
    <line x1="-8" y1="-10" x2="-24" y2="-10" stroke="#059669" stroke-width="1.5" stroke-linecap="round" stroke-opacity="0.18"></line>
    <line x1="-8" y1="-5" x2="-20" y2="-5" stroke="#059669" stroke-width="1" stroke-linecap="round" stroke-opacity="0.12"></line>
    <line x1="-8" y1="-16" x2="-16" y2="-16" stroke="#059669" stroke-width="1" stroke-linecap="round" stroke-opacity="0.10"></line>
  </g>

  
  <g filter="url(#tw-soft)" transform="translate(760 148) scale(-1,1)">
    
    <rect x="0" y="-16" width="48" height="20" rx="3" fill="url(#tw-cab)" stroke="#059669" stroke-width="1" stroke-opacity="0.28"></rect>
    
    <rect x="34" y="-14" width="10" height="8" rx="1.5" fill="#059669" fill-opacity="0.15"></rect>
    
    <rect x="8" y="-13" width="8" height="6" rx="1" fill="#059669" fill-opacity="0.1"></rect>
    <rect x="20" y="-13" width="8" height="6" rx="1" fill="#059669" fill-opacity="0.1"></rect>
    
    <rect x="44" y="-8" width="4" height="4" rx="1" fill="#059669" fill-opacity="0.2"></rect>
    
    <circle cx="10" cy="6" r="6" fill="#D1FAE5" stroke="#059669" stroke-width="1" stroke-opacity="0.28"></circle>
    <circle cx="10" cy="6" r="2.5" fill="#059669" fill-opacity="0.15"></circle>
    <circle cx="38" cy="6" r="6" fill="#D1FAE5" stroke="#059669" stroke-width="1" stroke-opacity="0.28"></circle>
    <circle cx="38" cy="6" r="2.5" fill="#059669" fill-opacity="0.15"></circle>
    
    <line x1="-6" y1="-8" x2="-18" y2="-8" stroke="#059669" stroke-width="1.2" stroke-linecap="round" stroke-opacity="0.18"></line>
    <line x1="-6" y1="-3" x2="-14" y2="-3" stroke="#059669" stroke-width="0.8" stroke-linecap="round" stroke-opacity="0.12"></line>
  </g>

  
  
  <g fill="#059669" fill-opacity="0.18">
    <ellipse cx="212" cy="138" rx="10" ry="14"></ellipse>
    <rect x="210" y="148" width="4" height="12" rx="1"></rect>
    <ellipse cx="228" cy="142" rx="7" ry="10"></ellipse>
    <rect x="226" y="150" width="4" height="8" rx="1"></rect>
  </g>
  
  <g fill="#059669" fill-opacity="0.16">
    <ellipse cx="668" cy="140" rx="9" ry="12"></ellipse>
    <rect x="666" y="149" width="4" height="11" rx="1"></rect>
    <ellipse cx="682" cy="144" rx="7" ry="10"></ellipse>
    <rect x="680" y="152" width="4" height="8" rx="1"></rect>
    <ellipse cx="694" cy="142" rx="8" ry="11"></ellipse>
    <rect x="692" y="150" width="4" height="10" rx="1"></rect>
  </g>

  
  
  <g fill="#059669" fill-opacity="0.06">
    <ellipse cx="80" cy="32" rx="24" ry="8"></ellipse>
    <ellipse cx="95" cy="28" rx="16" ry="6"></ellipse>
    <ellipse cx="64" cy="30" rx="14" ry="5"></ellipse>
  </g>
  
  <g fill="#059669" fill-opacity="0.05">
    <ellipse cx="450" cy="22" rx="30" ry="9"></ellipse>
    <ellipse cx="468" cy="18" rx="18" ry="6"></ellipse>
    <ellipse cx="432" cy="20" rx="16" ry="6"></ellipse>
  </g>
  
  <g fill="#059669" fill-opacity="0.06">
    <ellipse cx="820" cy="30" rx="22" ry="7"></ellipse>
    <ellipse cx="835" cy="26" rx="14" ry="5"></ellipse>
    <ellipse cx="806" cy="28" rx="12" ry="5"></ellipse>
  </g>

  
  <g stroke="#059669" stroke-width="1.4" stroke-linecap="round" stroke-opacity="0.3">
    <line x1="210" y1="54" x2="216" y2="60"></line>
    <line x1="216" y1="54" x2="210" y2="60"></line>
  </g>
  <g stroke="#059669" stroke-width="1.2" stroke-linecap="round" stroke-opacity="0.25">
    <line x1="680" y1="52" x2="685" y2="57"></line>
    <line x1="685" y1="52" x2="680" y2="57"></line>
  </g>
  <circle cx="228" cy="48" r="2" fill="#059669" fill-opacity="0.15"></circle>
  <circle cx="670" cy="42" r="1.5" fill="#059669" fill-opacity="0.12"></circle>
  <circle cx="340" cy="62" r="1.5" fill="#059669" fill-opacity="0.14"></circle>
  <circle cx="564" cy="60" r="2" fill="#059669" fill-opacity="0.12"></circle>

  
  <rect x="0" y="120" width="900" height="60" fill="url(#tw-haze)" rx="0"></rect>
</svg>