<svg xmlns="http://www.w3.org/2000/svg" viewBox="0 0 240 200" fill="none">
  <defs>
    <linearGradient id="er-map" x1="0" y1="0" x2="0" y2="1">
      <stop offset="0%" stop-color="#FFFFFF"></stop>
      <stop offset="100%" stop-color="#F9FAFB"></stop>
    </linearGradient>
    <linearGradient id="er-pin-a" x1="0" y1="0" x2="0" y2="1">
      <stop offset="0%" stop-color="#059669"></stop>
      <stop offset="100%" stop-color="#047857"></stop>
    </linearGradient>
    <linearGradient id="er-pin-b" x1="0" y1="0" x2="0" y2="1">
      <stop offset="0%" stop-color="#FFFFFF"></stop>
      <stop offset="100%" stop-color="#F0FDF4"></stop>
    </linearGradient>
    <radialGradient id="er-shadow" cx="50%" cy="30%" r="60%">
      <stop offset="0%" stop-color="#059669" stop-opacity="0.09"></stop>
      <stop offset="100%" stop-color="#059669" stop-opacity="0"></stop>
    </radialGradient>
    <filter id="er-drop-map" x="-15%" y="-15%" width="130%" height="130%">
      <feDropShadow dx="0" dy="3" stdDeviation="5" flood-color="#09090B" flood-opacity="0.07"></feDropShadow>
    </filter>
    <filter id="er-drop-pin" x="-40%" y="-20%" width="180%" height="140%">
      <feDropShadow dx="0" dy="3" stdDeviation="3" flood-color="#059669" flood-opacity="0.22"></feDropShadow>
    </filter>
  </defs>

  
  <ellipse cx="120" cy="174" rx="78" ry="8" fill="url(#er-shadow)"></ellipse>

  
  <g filter="url(#er-drop-map)">
    
    <path d="M36 54 L92 46 L150 58 L204 50 L204 156 L150 164 L92 152 L36 160 Z" fill="url(#er-map)" stroke="#E4E4E7" stroke-width="1.8" stroke-linejoin="round"></path>

    
    <path d="M36 54 L92 46 L150 58 L204 50 L204 58 L150 66 L92 54 L36 62 Z" fill="#FFFFFF" fill-opacity="0.55"></path>

    
    <line x1="92" y1="46" x2="92" y2="152" stroke="#E4E4E7" stroke-width="1.2" stroke-dasharray="2 3.5"></line>
    <line x1="150" y1="58" x2="150" y2="164" stroke="#E4E4E7" stroke-width="1.2" stroke-dasharray="2 3.5"></line>

    
    <g stroke="#F4F4F5" stroke-width="1">
      <line x1="36" y1="80" x2="204" y2="76"></line>
      <line x1="36" y1="104" x2="204" y2="100"></line>
      <line x1="36" y1="128" x2="204" y2="124"></line>
    </g>

    
    <path d="M46 84 Q64 76 80 86 Q74 98 58 96 Z" fill="#ECFDF5" fill-opacity="0.9"></path>
    <path d="M156 108 Q174 100 188 114 Q180 124 164 120 Z" fill="#ECFDF5" fill-opacity="0.9"></path>
    <path d="M100 128 Q114 122 128 132 Q120 142 106 140 Z" fill="#ECFDF5" fill-opacity="0.7"></path>

    
    <path d="M46 84 Q64 76 80 86 Q74 98 58 96 Z" stroke="#059669" stroke-width="0.8" stroke-opacity="0.25" fill="none"></path>
    <path d="M156 108 Q174 100 188 114 Q180 124 164 120 Z" stroke="#059669" stroke-width="0.8" stroke-opacity="0.25" fill="none"></path>

    
    <g stroke="#D4D4D8" stroke-width="1" stroke-linecap="round">
      <path d="M56 90 L70 104 L68 120" fill="none"></path>
      <path d="M100 100 L120 112 L140 108" fill="none"></path>
      <path d="M164 88 L172 106" fill="none"></path>
    </g>

    
    <g fill="#D1FAE5">
      <rect x="104" y="98" width="5" height="6" rx="1"></rect>
      <rect x="114" y="95" width="4" height="9" rx="1"></rect>
      <rect x="162" y="85" width="5" height="5" rx="1"></rect>
    </g>

    
    <path d="M68 124 C 88 78, 154 76, 182 62" stroke="#059669" stroke-width="2.8" stroke-linecap="round" stroke-dasharray="5 7" fill="none"></path>
    
    <path d="M68 124 C 88 78, 154 76, 182 62" stroke="#059669" stroke-width="5" stroke-linecap="round" stroke-dasharray="5 7" fill="none" stroke-opacity="0.07"></path>

    
    <g transform="translate(178 138)">
      <circle r="12" cx="0" cy="0" fill="#FFFFFF" stroke="#E4E4E7" stroke-width="1.5"></circle>
      
      <path d="M0 -9 L2.8 -1 L0 7 L-2.8 -1 Z" fill="#059669"></path>
      
      <path d="M0 9 L2.2 3 L0 -1 L-2.2 3 Z" fill="#E4E4E7"></path>
      
      <line x1="-9" y1="0" x2="-5" y2="0" stroke="#D4D4D8" stroke-width="1.2"></line>
      <line x1="5" y1="0" x2="9" y2="0" stroke="#D4D4D8" stroke-width="1.2"></line>
      
      <text x="0" y="-14" font-family="ui-sans-serif, system-ui, sans-serif" font-size="6.5" font-weight="700" fill="#059669" text-anchor="middle">N</text>
    </g>

    
    <g transform="translate(120 92)">
      <rect x="-18" y="-9" width="36" height="17" rx="5" fill="#ECFDF5" stroke="#059669" stroke-width="1"></rect>
      <text x="0" y="3.5" font-family="ui-sans-serif, system-ui, sans-serif" font-size="7" font-weight="600" fill="#059669" text-anchor="middle">– km –</text>
    </g>
  </g>

  
  <g filter="url(#er-drop-pin)">
    <path d="M68 126 C 68 112, 80 104, 80 92 C 80 79, 70 72, 62 78 C 54 84, 56 96, 68 126 Z" fill="url(#er-pin-a)" stroke="#047857" stroke-width="1.2"></path>
    
    <circle cx="68" cy="90" r="5.5" fill="#FFFFFF"></circle>
    <circle cx="68" cy="90" r="2.5" fill="#059669"></circle>
    
    <rect x="76" y="108" width="13" height="11" rx="3" fill="#059669"></rect>
    <text x="82.5" y="117.5" font-family="ui-sans-serif, system-ui, sans-serif" font-size="7" font-weight="700" fill="#FFFFFF" text-anchor="middle">A</text>
  </g>

  
  <g filter="url(#er-drop-pin)">
    <path d="M182 64 C 182 50, 193 42, 193 30 C 193 17, 182 11, 175 17 C 168 23, 170 35, 182 64 Z" fill="url(#er-pin-b)" stroke="#059669" stroke-width="2"></path>
    
    <circle cx="182" cy="28" r="5" fill="#059669"></circle>
    <circle cx="182" cy="28" r="2.2" fill="#FFFFFF"></circle>
    
    <rect x="160" y="44" width="13" height="11" rx="3" fill="#FFFFFF" stroke="#059669" stroke-width="1"></rect>
    <text x="166.5" y="53.5" font-family="ui-sans-serif, system-ui, sans-serif" font-size="7" font-weight="700" fill="#059669" text-anchor="middle">B</text>
  </g>

  
  <g stroke="#059669" stroke-width="1.6" stroke-linecap="round" opacity="0.45">
    <line x1="42" y1="38" x2="48" y2="44"></line>
    <line x1="48" y1="38" x2="42" y2="44"></line>
  </g>
  <g stroke="#059669" stroke-width="1.2" stroke-linecap="round" opacity="0.3">
    <line x1="208" y1="72" x2="212" y2="76"></line>
    <line x1="212" y1="72" x2="208" y2="76"></line>
  </g>
  <circle cx="34" cy="100" r="2" fill="#059669" fill-opacity="0.18"></circle>
  <circle cx="210" cy="136" r="1.5" fill="#059669" fill-opacity="0.22"></circle>
</svg>