<svg xmlns="http://www.w3.org/2000/svg" viewBox="0 0 240 200" fill="none">
  <defs>
    <linearGradient id="em-card-l" x1="0" y1="0" x2="0" y2="1">
      <stop offset="0%" stop-color="#FFFFFF"></stop>
      <stop offset="100%" stop-color="#FAFAFA"></stop>
    </linearGradient>
    <linearGradient id="em-card-r" x1="0" y1="0" x2="0" y2="1">
      <stop offset="0%" stop-color="#F0FDF4"></stop>
      <stop offset="100%" stop-color="#ECFDF5"></stop>
    </linearGradient>
    <linearGradient id="em-link" x1="0" y1="0" x2="1" y2="0">
      <stop offset="0%" stop-color="#059669" stop-opacity="0.3"></stop>
      <stop offset="50%" stop-color="#059669" stop-opacity="0.8"></stop>
      <stop offset="100%" stop-color="#059669" stop-opacity="0.3"></stop>
    </linearGradient>
    <linearGradient id="em-center" x1="0" y1="0" x2="0" y2="1">
      <stop offset="0%" stop-color="#059669"></stop>
      <stop offset="100%" stop-color="#047857"></stop>
    </linearGradient>
    <radialGradient id="em-shadow" cx="50%" cy="30%" r="60%">
      <stop offset="0%" stop-color="#059669" stop-opacity="0.1"></stop>
      <stop offset="100%" stop-color="#059669" stop-opacity="0"></stop>
    </radialGradient>
    <filter id="em-drop-card" x="-15%" y="-15%" width="130%" height="130%">
      <feDropShadow dx="0" dy="3" stdDeviation="5" flood-color="#09090B" flood-opacity="0.08"></feDropShadow>
    </filter>
    <filter id="em-drop-center" x="-40%" y="-40%" width="180%" height="180%">
      <feDropShadow dx="0" dy="4" stdDeviation="6" flood-color="#059669" flood-opacity="0.25"></feDropShadow>
    </filter>
  </defs>

  
  <ellipse cx="120" cy="172" rx="82" ry="8" fill="url(#em-shadow)"></ellipse>

  
  <g filter="url(#em-drop-card)">
    <rect x="32" y="52" width="74" height="96" rx="10" fill="url(#em-card-l)" stroke="#E4E4E7" stroke-width="1.5"></rect>
    
    <rect x="32" y="52" width="74" height="22" rx="10" fill="#F4F4F5"></rect>
    <rect x="32" y="63" width="74" height="11" rx="0" fill="#F4F4F5"></rect>
    
    <rect x="42" y="60" width="38" height="6" rx="2" fill="#D4D4D8"></rect>
    
    <rect x="88" y="57" width="12" height="10" rx="2" fill="#E4E4E7"></rect>
    <rect x="90" y="59" width="8" height="4" rx="1" fill="#D4D4D8"></rect>
    
    <rect x="42" y="83" width="54" height="5" rx="2" fill="#E4E4E7"></rect>
    <rect x="42" y="94" width="44" height="4" rx="2" fill="#F4F4F5"></rect>
    <rect x="42" y="104" width="50" height="4" rx="2" fill="#F4F4F5"></rect>
    <rect x="42" y="114" width="38" height="4" rx="2" fill="#F4F4F5"></rect>
    
    <rect x="42" y="128" width="30" height="11" rx="4" fill="#ECFDF5" stroke="#059669" stroke-width="1"></rect>
    <rect x="47" y="132" width="20" height="3" rx="1.5" fill="#059669" fill-opacity="0.5"></rect>
    
    <rect x="88" y="80" width="13" height="13" rx="3.5" fill="#F4F4F5" stroke="#E4E4E7" stroke-width="1"></rect>
    <text x="94.5" y="90" font-family="ui-sans-serif, system-ui" font-size="6" font-weight="700" fill="#A1A1AA" text-anchor="middle">WO</text>
  </g>

  
  <g filter="url(#em-drop-card)">
    <rect x="134" y="52" width="74" height="96" rx="10" fill="url(#em-card-r)" stroke="#059669" stroke-width="1.5"></rect>
    
    <rect x="134" y="52" width="74" height="22" rx="10" fill="#D1FAE5"></rect>
    <rect x="134" y="63" width="74" height="11" rx="0" fill="#D1FAE5"></rect>
    
    <rect x="144" y="60" width="38" height="6" rx="2" fill="#6EE7B7"></rect>
    
    <rect x="190" y="57" width="12" height="10" rx="2" fill="#A7F3D0"></rect>
    <rect x="192" y="59" width="8" height="4" rx="1" fill="#6EE7B7"></rect>
    
    <rect x="144" y="83" width="54" height="5" rx="2" fill="#A7F3D0"></rect>
    <rect x="144" y="94" width="44" height="4" rx="2" fill="#ECFDF5"></rect>
    <rect x="144" y="104" width="50" height="4" rx="2" fill="#ECFDF5"></rect>
    <rect x="144" y="114" width="38" height="4" rx="2" fill="#ECFDF5"></rect>
    
    <rect x="144" y="128" width="30" height="11" rx="4" fill="#059669"></rect>
    <rect x="149" y="132" width="20" height="3" rx="1.5" fill="#FFFFFF" fill-opacity="0.6"></rect>
    
    <rect x="190" y="80" width="13" height="13" rx="3.5" fill="#ECFDF5" stroke="#059669" stroke-width="1"></rect>
    <text x="196.5" y="90" font-family="ui-sans-serif, system-ui" font-size="5" font-weight="700" fill="#059669" text-anchor="middle">TRP</text>
  </g>

  
  
  <path d="M106 100 C 110 100, 112 100, 114 100" stroke="#059669" stroke-width="2" stroke-linecap="round" stroke-dasharray="3 4" stroke-opacity="0.5"></path>
  
  <path d="M126 100 C 128 100, 130 100, 134 100" stroke="#059669" stroke-width="2" stroke-linecap="round" stroke-dasharray="3 4" stroke-opacity="0.5"></path>
  
  <circle cx="107" cy="100" r="2.2" fill="#059669" fill-opacity="0.4"></circle>
  <circle cx="133" cy="100" r="2.2" fill="#059669" fill-opacity="0.4"></circle>

  
  <g filter="url(#em-drop-center)">
    <circle cx="120" cy="100" r="16" fill="url(#em-center)"></circle>
    
    <circle cx="120" cy="100" r="16" stroke="#FFFFFF" stroke-width="1" stroke-opacity="0.25"></circle>
    
    <path d="M112 100 L117 105 L128 94" stroke="#FFFFFF" stroke-width="2.8" stroke-linecap="round" stroke-linejoin="round"></path>
    
    <path d="M110 92 Q114 88 120 89" stroke="#FFFFFF" stroke-width="1.5" stroke-linecap="round" stroke-opacity="0.35"></path>
  </g>

  
  <g stroke="#059669" stroke-width="1.6" stroke-linecap="round" opacity="0.5">
    <line x1="50" y1="38" x2="56" y2="44"></line>
    <line x1="56" y1="38" x2="50" y2="44"></line>
  </g>
  <g stroke="#059669" stroke-width="1.6" stroke-linecap="round" opacity="0.5">
    <line x1="188" y1="38" x2="194" y2="44"></line>
    <line x1="194" y1="38" x2="188" y2="44"></line>
  </g>
  <circle cx="30" cy="100" r="2" fill="#059669" fill-opacity="0.18"></circle>
  <circle cx="212" cy="130" r="1.5" fill="#059669" fill-opacity="0.22"></circle>
  <circle cx="32" cy="148" r="1.2" fill="#A1A1AA" fill-opacity="0.35"></circle>
</svg>